REM DIRINDEX 1\2,1\3
REM DIRNAME folder01,folder02,folder03
TITLE ""
FILE "1401-1420.mp3" MP3
  TRACK 01 AUDIO
    TITLE "0:"
    INDEX 01 00:00:00
  TRACK 02 AUDIO
    TITLE "2:cjc039_1801"
    INDEX 01 00:00:25
  TRACK 03 AUDIO
    TITLE "0:"
    INDEX 01 00:01:42
  TRACK 04 AUDIO
    TITLE "3:cjc039_1802"
    INDEX 01 00:02:18
  TRACK 05 AUDIO
    TITLE "0:"
    INDEX 01 00:06:02
  TRACK 06 AUDIO
    TITLE "2:cjc039_1803"
    INDEX 01 00:07:56
  TRACK 07 AUDIO
    TITLE "0:"
    INDEX 01 00:09:14
  TRACK 08 AUDIO
    TITLE "3:cjc039_1804"
    INDEX 01 00:09:67
  TRACK 09 AUDIO
    TITLE "0:"
    INDEX 01 00:14:17
  TRACK 10 AUDIO
    TITLE "2:cjc039_1805"
    INDEX 01 00:15:70
  TRACK 11 AUDIO
    TITLE "0:"
    INDEX 01 00:17:00
  TRACK 12 AUDIO
    TITLE "3:cjc039_1806"
    INDEX 01 00:17:49
  TRACK 13 AUDIO
    TITLE "0:"
    INDEX 01 00:20:57
  TRACK 14 AUDIO
    TITLE "2:cjc039_1807"
    INDEX 01 00:22:32
  TRACK 15 AUDIO
    TITLE "0:"
    INDEX 01 00:24:16
  TRACK 16 AUDIO
    TITLE "3:cjc039_1808"
    INDEX 01 00:24:67
  TRACK 17 AUDIO
    TITLE "0:"
    INDEX 01 00:29:09
  TRACK 18 AUDIO
    TITLE "2:cjc039_1809"
    INDEX 01 00:30:57
  TRACK 19 AUDIO
    TITLE "0:"
    INDEX 01 00:32:00
  TRACK 20 AUDIO
    TITLE "3:cjc039_1810"
    INDEX 01 00:32:50
  TRACK 21 AUDIO
    TITLE "0:"
    INDEX 01 00:35:72
  TRACK 22 AUDIO
    TITLE "2:cjc039_1811"
    INDEX 01 00:37:44
  TRACK 23 AUDIO
    TITLE "0:"
    INDEX 01 00:39:15
  TRACK 24 AUDIO
    TITLE "3:cjc039_1812"
    INDEX 01 00:39:66
  TRACK 25 AUDIO
    TITLE "0:"
    INDEX 01 00:43:46
  TRACK 26 AUDIO
    TITLE "2:cjc039_1813"
    INDEX 01 00:45:26
  TRACK 27 AUDIO
    TITLE "0:"
    INDEX 01 00:46:33
  TRACK 28 AUDIO
    TITLE "3:cjc039_1814"
    INDEX 01 00:47:09
  TRACK 29 AUDIO
    TITLE "0:"
    INDEX 01 00:50:44
  TRACK 30 AUDIO
    TITLE "2:cjc039_1815"
    INDEX 01 00:52:18
  TRACK 31 AUDIO
    TITLE "0:"
    INDEX 01 00:53:43
  TRACK 32 AUDIO
    TITLE "3:cjc039_1816"
    INDEX 01 00:54:19
  TRACK 33 AUDIO
    TITLE "0:"
    INDEX 01 00:57:48
  TRACK 34 AUDIO
    TITLE "2:cjc039_1817"
    INDEX 01 00:59:22
  TRACK 35 AUDIO
    TITLE "0:"
    INDEX 01 01:00:12
  TRACK 36 AUDIO
    TITLE "3:cjc039_1818"
    INDEX 01 01:00:68
  TRACK 37 AUDIO
    TITLE "0:"
    INDEX 01 01:03:69
  TRACK 38 AUDIO
    TITLE "2:cjc039_1819"
    INDEX 01 01:05:46
  TRACK 39 AUDIO
    TITLE "0:"
    INDEX 01 01:07:06
  TRACK 40 AUDIO
    TITLE "3:cjc039_1820"
    INDEX 01 01:07:53
  TRACK 41 AUDIO
    TITLE "0:"
    INDEX 01 01:11:56
  TRACK 42 AUDIO
    TITLE "2:cjc039_1821"
    INDEX 01 01:13:34
  TRACK 43 AUDIO
    TITLE "0:"
    INDEX 01 01:14:35
  TRACK 44 AUDIO
    TITLE "3:cjc039_1822"
    INDEX 01 01:15:11
  TRACK 45 AUDIO
    TITLE "0:"
    INDEX 01 01:18:06
  TRACK 46 AUDIO
    TITLE "2:cjc039_1823"
    INDEX 01 01:19:56
  TRACK 47 AUDIO
    TITLE "0:"
    INDEX 01 01:21:12
  TRACK 48 AUDIO
    TITLE "3:cjc039_1824"
    INDEX 01 01:21:57
  TRACK 49 AUDIO
    TITLE "0:"
    INDEX 01 01:25:55
  TRACK 50 AUDIO
    TITLE "2:cjc039_1825"
    INDEX 01 01:27:28
  TRACK 51 AUDIO
    TITLE "0:"
    INDEX 01 01:28:24
  TRACK 52 AUDIO
    TITLE "3:cjc039_1826"
    INDEX 01 01:29:01
  TRACK 53 AUDIO
    TITLE "0:"
    INDEX 01 01:31:73
  TRACK 54 AUDIO
    TITLE "2:cjc039_1827"
    INDEX 01 01:33:46
  TRACK 55 AUDIO
    TITLE "0:"
    INDEX 01 01:34:69
  TRACK 56 AUDIO
    TITLE "3:cjc039_1828"
    INDEX 01 01:35:49
  TRACK 57 AUDIO
    TITLE "0:"
    INDEX 01 01:39:51
  TRACK 58 AUDIO
    TITLE "2:cjc039_1829"
    INDEX 01 01:41:26
  TRACK 59 AUDIO
    TITLE "0:"
    INDEX 01 01:42:33
  TRACK 60 AUDIO
    TITLE "3:cjc039_1830"
    INDEX 01 01:43:11
  TRACK 61 AUDIO
    TITLE "0:"
    INDEX 01 01:46:49
  TRACK 62 AUDIO
    TITLE "2:cjc039_1831"
    INDEX 01 01:48:20
  TRACK 63 AUDIO
    TITLE "0:"
    INDEX 01 01:49:51
  TRACK 64 AUDIO
    TITLE "3:cjc039_1832"
    INDEX 01 01:50:17
  TRACK 65 AUDIO
    TITLE "0:"
    INDEX 01 01:54:21
  TRACK 66 AUDIO
    TITLE "2:cjc039_1833"
    INDEX 01 01:55:69
  TRACK 67 AUDIO
    TITLE "0:"
    INDEX 01 01:57:13
  TRACK 68 AUDIO
    TITLE "3:cjc039_1834"
    INDEX 01 01:57:62
  TRACK 69 AUDIO
    TITLE "0:"
    INDEX 01 02:01:31
  TRACK 70 AUDIO
    TITLE "2:cjc039_1835"
    INDEX 01 02:03:06
  TRACK 71 AUDIO
    TITLE "0:"
    INDEX 01 02:04:49
  TRACK 72 AUDIO
    TITLE "3:cjc039_1836"
    INDEX 01 02:05:23
  TRACK 73 AUDIO
    TITLE "0:"
    INDEX 01 02:09:60
  TRACK 74 AUDIO
    TITLE "2:cjc039_1837"
    INDEX 01 02:11:37
  TRACK 75 AUDIO
    TITLE "0:"
    INDEX 01 02:12:44
  TRACK 76 AUDIO
    TITLE "3:cjc039_1838"
    INDEX 01 02:13:18
  TRACK 77 AUDIO
    TITLE "0:"
    INDEX 01 02:16:26
  TRACK 78 AUDIO
    TITLE "2:cjc039_1839"
    INDEX 01 02:18:02
  TRACK 79 AUDIO
    TITLE "0:"
    INDEX 01 02:19:21
  TRACK 80 AUDIO
    TITLE "3:cjc039_1840"
    INDEX 01 02:19:70
  TRACK 81 AUDIO
    TITLE "0:"
    INDEX 01 02:24:02
